<svg xmlns="http://www.w3.org/2000/svg" viewBox="0 0 3677 1921"><defs><style>.cls-1{fill:#fff;}.cls-2{fill:none;}.cls-3{fill:#152d49;}</style></defs><g id="Layer_6" data-name="Layer 6"><g id="Layer_9" data-name="Layer 9"><path class="cls-1" d="M2285,410c-206,0-383.28,124.79-462.62,304C1743.91,532.65,1565.52,406,1358,406c-280,0-507,230.57-507,515s227,515,507,515c206,0,383.28-124.79,462.62-304,78.46,181.35,256.86,308,464.38,308,280,0,507-230.57,507-515S2565,410,2285,410Z"/><path class="cls-2" d="M2686,649.67c-88.19-133.49-239.67-221.57-411.75-221.57A493.09,493.09,0,0,0,1821,726.54a2.88,2.88,0,0,1-5.29,0A493.25,493.25,0,0,0,1362.48,428C1214.19,428,1081.2,493.45,990.82,597A490.41,490.41,0,0,0,869.47,920.6q0,9.81.39,19.53c10.26,263,226.89,473,492.62,473,203.37,0,378-123,453.33-298.66a2.78,2.78,0,0,1,5.11,0c75.34,175.66,250,298.72,453.36,298.72,272.2,0,492.87-220.39,493-492.31v-.25A489.93,489.93,0,0,0,2686,649.67Z"/><path class="cls-2" d="M4480.4-381.32v-16.56c0-31.15-42.2-56.41-94.26-56.41h-4892C-602.6-628.23-657.07-738.9-660.08-739.09l6.54,284.8H-789c-54.52,0-97.67,27.59-94.06,60.15l42.55,383.41c5.21,47-16.63,548,58.59,534.14l146.58-35.87V1755.71c-44.07,80.61-66,317.1-66,370.92v25.8a87.88,87.88,0,0,0,87.88,87.88H4211.23a87.36,87.36,0,0,0,53.32-18h7.09v-6a87.64,87.64,0,0,0,27.28-69.64l-27.28-410.89V1276.25c103.2,111.09,161.3,181.72,164.53,181.84l-60.82-1584C4445.52-123.31,4480.4-339.25,4480.4-381.32ZM2760.58,1130a542.24,542.24,0,0,1-111.09,172.21,516.79,516.79,0,0,1-165.07,116.32A497.44,497.44,0,0,1,2282,1461.28c-105.18,0-206.47-32.64-292.94-94.39-71.91-51.37-129.75-119.91-169.13-200-39.39,80.07-97.22,148.61-169.14,200-86.47,61.75-187.76,94.39-292.94,94.39a497.44,497.44,0,0,1-202.42-42.72,516.79,516.79,0,0,1-165.07-116.32A542,542,0,0,1,879.28,1130a565.5,565.5,0,0,1,0-421.31A542,542,0,0,1,990.36,536.5a516.91,516.91,0,0,1,165.07-116.31,497.45,497.45,0,0,1,202.42-42.73c105.18,0,206.47,32.65,292.94,94.4,71.92,51.37,129.75,119.9,169.14,200,39.38-80.07,97.22-148.6,169.13-200,86.47-61.75,187.76-94.4,292.94-94.4a497.45,497.45,0,0,1,202.42,42.73A516.91,516.91,0,0,1,2649.49,536.5a542.17,542.17,0,0,1,111.09,172.22,565.63,565.63,0,0,1,0,421.31Z"/><path class="cls-2" d="M2274.28,1413.22c-203.4,0-378-123.06-453.36-298.72a2.78,2.78,0,0,0-5.11,0c-75.35,175.62-250,298.66-453.33,298.66-265.73,0-482.36-210.05-492.62-473v.06c0,272,220.72,492.56,493,492.56,203.37,0,378-123,453.33-298.66a2.78,2.78,0,0,1,5.1,0c75.35,175.66,250,298.72,453.36,298.72,272.28,0,493-220.52,493-492.56q0-9.71-.38-19.34C2767.15,1192.83,2546.48,1413.22,2274.28,1413.22Z"/><path class="cls-2" d="M2686,649.67c-85.22-139.52-234.48-232.21-404-232.21A463.26,463.26,0,0,0,2020.94,498a491,491,0,0,1,253.34-69.94C2446.36,428.1,2597.84,516.18,2686,649.67Z"/><path class="cls-2" d="M1362.48,428a491,491,0,0,1,280.46,87.43c-80.65-62.44-179.79-98-285.09-98-147.17,0-279,69.83-367,179.51C1081.2,493.45,1214.19,428,1362.48,428Z"/><path class="cls-3" d="M2649.49,536.5a516.91,516.91,0,0,0-165.07-116.31A497.45,497.45,0,0,0,2282,377.46c-105.18,0-206.47,32.65-292.94,94.4-71.91,51.37-129.75,119.9-169.13,200-39.39-80.07-97.22-148.6-169.14-200-86.47-61.75-187.76-94.4-292.94-94.4a497.45,497.45,0,0,0-202.42,42.73A516.91,516.91,0,0,0,990.36,536.5,542,542,0,0,0,879.28,708.72a565.5,565.5,0,0,0,0,421.31,542,542,0,0,0,111.08,172.21,516.79,516.79,0,0,0,165.07,116.32,497.44,497.44,0,0,0,202.42,42.72c105.18,0,206.47-32.64,292.94-94.39,71.92-51.37,129.75-119.91,169.14-200,39.38,80.07,97.22,148.61,169.13,200,86.47,61.75,187.76,94.39,292.94,94.39a497.44,497.44,0,0,0,202.42-42.72,516.79,516.79,0,0,0,165.07-116.32A542.24,542.24,0,0,0,2760.58,1130a565.63,565.63,0,0,0,0-421.31A542.17,542.17,0,0,0,2649.49,536.5Zm118.18,403.75c0,272-220.73,492.56-493,492.56-203.39,0-378-123.06-453.36-298.72a2.78,2.78,0,0,0-5.1,0c-75.36,175.63-250,298.66-453.33,298.66-272.29,0-493-220.52-493-492.56v-.06q-.39-9.72-.39-19.53A490.41,490.41,0,0,1,990.82,597c88-109.68,219.86-179.51,367-179.51,105.3,0,204.44,35.57,285.09,98a494.5,494.5,0,0,1,172.81,211.07,2.88,2.88,0,0,0,5.29,0A494.63,494.63,0,0,1,2020.94,498,463.26,463.26,0,0,1,2282,417.46c169.55,0,318.81,92.69,404,232.21a489.93,489.93,0,0,1,81.26,271v.25Q2767.67,930.54,2767.67,940.25Z"/></g></g></svg>